<svg width="63" height="55" viewBox="0 0 63 55" fill="none" xmlns="http://www.w3.org/2000/svg">
<mask id="mask0_309_796" style="mask-type:alpha" maskUnits="userSpaceOnUse" x="0" y="0" width="63" height="55">
<path fill-rule="evenodd" clip-rule="evenodd" d="M0 0.0775146H62.8444V54.6099H0V0.0775146Z" fill="white"/>
</mask>
<g mask="url(#mask0_309_796)">
<path fill-rule="evenodd" clip-rule="evenodd" d="M38.8334 1.48228C37.546 2.03262 36.7571 3.43477 37.0865 4.7943C37.5179 6.57465 39.4114 7.46096 41.0149 6.76358C45.3855 4.86459 50.3882 5.80956 53.7597 9.17674C58.2496 13.6597 58.2496 20.9557 53.7603 25.4396L41.5182 37.6811L29.7902 25.9686L35.9616 19.7637L41.5747 25.373C42.1334 25.9318 42.8661 26.2108 43.5979 26.2108C44.2698 26.2108 44.9414 25.9754 45.4792 25.5057C46.7427 24.4024 46.6825 22.3959 45.496 21.2101L33.4438 9.16531L33.1617 8.88285L30.6831 6.40677L29.4133 5.13745C22.6935 -1.56997 11.7583 -1.5709 5.03912 5.13745C-1.67971 11.8484 -1.67971 22.768 5.03912 29.4782L29.4478 53.7766C30.565 54.8889 32.3732 54.8875 33.4887 53.7737C34.6068 52.6571 34.6057 50.8465 33.4857 49.7316L9.08461 25.4396C4.5948 20.9557 4.5948 13.6597 9.08424 9.17748C13.5726 4.69375 20.8789 4.69541 25.3691 9.17674L26.6365 10.4442L31.9191 15.7227L25.7458 21.9285L18.6039 14.7953C17.5091 13.7016 15.7076 13.5409 14.5569 14.5761C13.3298 15.6803 13.2929 17.5693 14.445 18.72L39.174 43.4194C40.4677 44.7116 42.5657 44.7112 43.8588 43.4185L57.8052 29.4782C64.5242 22.768 64.5242 11.8484 57.8043 5.13745C52.7857 0.124779 45.3499 -1.30338 38.8334 1.48228Z" fill="#199BB5"/>
</g>
</svg>
