<svg width="322" height="56" viewBox="0 0 322 56" fill="none" xmlns="http://www.w3.org/2000/svg">
<mask id="mask0_309_794" style="mask-type:alpha" maskUnits="userSpaceOnUse" x="0" y="1" width="63" height="55">
<path fill-rule="evenodd" clip-rule="evenodd" d="M0 1.07751H62.8444V55.6099H0V1.07751Z" fill="white"/>
</mask>
<g mask="url(#mask0_309_794)">
<path fill-rule="evenodd" clip-rule="evenodd" d="M38.8334 2.48228C37.546 3.03262 36.7571 4.43477 37.0865 5.7943C37.5179 7.57465 39.4114 8.46096 41.0149 7.76358C45.3855 5.86459 50.3882 6.80956 53.7597 10.1767C58.2495 14.6597 58.2495 21.9557 53.7603 26.4396L41.5182 38.6811L29.7902 26.9686L35.9616 20.7637L41.5747 26.373C42.1334 26.9318 42.8661 27.2108 43.5979 27.2108C44.2698 27.2108 44.9414 26.9754 45.4792 26.5057C46.7427 25.4024 46.6825 23.3959 45.496 22.2101L33.4438 10.1653L33.1617 9.88285L30.6831 7.40677L29.4133 6.13745C22.6935 -0.569974 11.7583 -0.570897 5.03912 6.13745C-1.67971 12.8484 -1.67971 23.768 5.03912 30.4782L29.4478 54.7766C30.565 55.8889 32.3732 55.8875 33.4887 54.7737C34.6068 53.6571 34.6057 51.8465 33.4857 50.7316L9.08461 26.4396C4.5948 21.9557 4.5948 14.6597 9.08424 10.1775C13.5726 5.69375 20.8789 5.69541 25.3691 10.1767L26.6365 11.4442L31.9191 16.7227L25.7458 22.9285L18.6039 15.7953C17.5091 14.7016 15.7076 14.5409 14.5569 15.5761C13.3298 16.6803 13.2929 18.5693 14.445 19.72L39.174 44.4194C40.4677 45.7116 42.5657 45.7112 43.8588 44.4185L57.8052 30.4782C64.5242 23.768 64.5242 12.8484 57.8043 6.13745C52.7857 1.12478 45.3499 -0.303382 38.8334 2.48228Z" fill="#199BB5"/>
</g>
<path fill-rule="evenodd" clip-rule="evenodd" d="M93 46H87.9933V35.2482C87.9933 33.1201 86.611 31.6642 84.5559 31.6642C82.5013 31.6642 81.044 33.1201 81.044 35.2482V46H76V18H81.044V29.088C82.2768 27.8562 84.0703 27.1094 86.1253 27.1094C90.31 27.1094 93 30.0587 93 34.5387V46Z" fill="#FEFEFE"/>
<path fill-rule="evenodd" clip-rule="evenodd" d="M109.208 34.6663C109.171 32.4297 107.452 30.9994 105.294 30.9994C103.209 30.9994 101.526 32.4297 100.977 34.6663H109.208ZM100.977 38.1502C101.562 40.4605 103.428 41.7438 106.062 41.7438C107.854 41.7438 109.537 41.1205 111.11 39.9103L113.159 43.284C111.001 45.0811 108.586 45.998 105.916 45.998C100.319 46.1077 95.8922 41.7438 96.002 36.5C95.8922 31.2562 100.245 26.8921 105.477 27.002C110.488 27.002 114 30.7059 114 35.4364C114 36.3166 113.89 37.2334 113.671 38.1502H100.977Z" fill="#FEFEFE"/>
<path fill-rule="evenodd" clip-rule="evenodd" d="M128.157 38.5542H124.355C122.776 38.5542 121.879 39.1777 121.879 40.3881C121.879 41.5985 122.883 42.3688 124.426 42.3688C126.543 42.3688 128.157 40.865 128.157 38.7742V38.5542ZM133 45.5597H128.552V43.7992C127.26 45.1564 125.395 46 123.134 46C119.368 46 117 43.7625 117 40.5714C117 37.3069 119.583 35.2898 123.708 35.2898H128.157V34.4826C128.157 32.4653 127.009 31.2916 124.856 31.2916C123.027 31.2916 121.735 32.062 120.157 33.7858L117.646 30.7415C119.691 28.2475 122.274 27 125.395 27C130.022 27 133 29.7513 133 34.7762V45.5597Z" fill="#FEFEFE"/>
<mask id="mask1_309_794" style="mask-type:alpha" maskUnits="userSpaceOnUse" x="0" y="1" width="322" height="54">
<path fill-rule="evenodd" clip-rule="evenodd" d="M0 55H322V1H0V55Z" fill="white"/>
</mask>
<g mask="url(#mask1_309_794)">
<path fill-rule="evenodd" clip-rule="evenodd" d="M137 46H142V18H137V46Z" fill="#FEFEFE"/>
<path fill-rule="evenodd" clip-rule="evenodd" d="M158 45.5631C156.786 45.8544 155.61 46 154.472 46C149.729 46 146.959 43.7436 146.959 39.2309V31.6978H144V27.5492H146.959V23H152.081V27.5492H157.393V31.6978H152.081V38.7942C152.081 40.8322 153.144 41.5964 155.572 41.5964C155.875 41.5964 156.672 41.56 158 41.4509V45.5631Z" fill="#FEFEFE"/>
<path fill-rule="evenodd" clip-rule="evenodd" d="M178 46H172.993V35.2482C172.993 33.1201 171.611 31.6642 169.556 31.6642C167.501 31.6642 166.044 33.1201 166.044 35.2482V46H161V18H166.044V29.088C167.277 27.8562 169.07 27.1094 171.125 27.1094C175.31 27.1094 178 30.0587 178 34.5387V46Z" fill="#FEFEFE"/>
<path fill-rule="evenodd" clip-rule="evenodd" d="M190.866 31.4462C188.266 31.4462 186.086 33.1589 186.086 36.4026C186.086 39.6096 188.227 41.3952 190.866 41.3952C193.619 41.3952 195.761 39.3908 195.761 36.4388C195.761 33.414 193.658 31.4462 190.866 31.4462ZM191.822 45.8777C189.528 45.8777 187.539 45.1124 186.163 43.691V52H181V27.4011H185.742V29.6603C187.004 27.9476 189.222 27 191.822 27C197.099 27 201 31.0087 201 36.4026C201 41.796 197.099 45.8777 191.822 45.8777Z" fill="#FEFEFE"/>
<path fill-rule="evenodd" clip-rule="evenodd" d="M215.157 38.5542H211.354C209.776 38.5542 208.879 39.1777 208.879 40.3881C208.879 41.5985 209.883 42.3688 211.426 42.3688C213.543 42.3688 215.157 40.865 215.157 38.7742V38.5542ZM220 45.5597H215.552V43.7992C214.26 45.1564 212.395 46 210.134 46C206.368 46 204 43.7625 204 40.5714C204 37.3069 206.583 35.2898 210.709 35.2898H215.157V34.4826C215.157 32.4653 214.009 31.2916 211.857 31.2916C210.027 31.2916 208.735 32.062 207.157 33.7858L204.646 30.7415C206.691 28.2475 209.274 27 212.395 27C217.022 27 220 29.7513 220 34.7762V45.5597Z" fill="#FEFEFE"/>
<path fill-rule="evenodd" clip-rule="evenodd" d="M236 45.5631C234.786 45.8544 233.61 46 232.471 46C227.729 46 224.959 43.7436 224.959 39.2309V31.6978H222V27.5492H224.959V23H230.081V27.5492H235.393V31.6978H230.081V38.7942C230.081 40.8322 231.144 41.5964 233.572 41.5964C233.875 41.5964 234.672 41.56 236 41.4509V45.5631Z" fill="#FEFEFE"/>
<path fill-rule="evenodd" clip-rule="evenodd" d="M255 46H249.993V35.2482C249.993 33.1201 248.611 31.6642 246.556 31.6642C244.501 31.6642 243.044 33.1201 243.044 35.2482V46H238V18H243.044V29.088C244.277 27.8562 246.07 27.1094 248.125 27.1094C252.31 27.1094 255 30.0587 255 34.5387V46Z" fill="#FEFEFE"/>
<path opacity="0.6" fill-rule="evenodd" clip-rule="evenodd" d="M279.307 32.8939C282.341 32.8939 284.074 31.038 284.074 28.2726C284.074 25.5455 282.341 23.6516 279.307 23.6516H273.817V32.8939H279.307ZM271 21H279.379C284.002 21 287 24.0303 287 28.2348C287 32.5151 284.002 35.5455 279.379 35.5455H273.817V46H271V21Z" fill="#FEFEFE"/>
<path opacity="0.6" fill-rule="evenodd" clip-rule="evenodd" d="M301 30.6394H299.88C296.714 30.6394 293.973 32.5824 293.973 35.8819V46H291V28.1466H293.78V30.676C295.131 28.9532 297.332 28 299.61 28C300.035 28 300.498 28.0367 301 28.1466V30.6394Z" fill="#FEFEFE"/>
<path opacity="0.6" fill-rule="evenodd" clip-rule="evenodd" d="M312.5 29.6571C308.775 29.6571 305.945 32.6111 305.945 36.5375C305.945 40.3516 308.775 43.3433 312.463 43.3433C316.15 43.3433 319.055 40.3516 319.055 36.5375C319.055 32.6111 316.187 29.6571 312.5 29.6571ZM312.5 27.0021C317.677 26.9273 322.109 31.3025 321.998 36.5001C322.109 41.6231 317.64 46.1103 312.463 45.9979C307.285 46.1103 302.928 41.6231 303.002 36.5001C302.891 31.3025 307.323 26.8899 312.5 27.0021Z" fill="#FEFEFE"/>
</g>
</svg>
