<svg width="100%" height="auto" viewBox="0 0 30 26" fill="none" xmlns="http://www.w3.org/2000/svg">
<path fill-rule="evenodd" clip-rule="evenodd" d="M27.4621 2.78274C25.0776 0.476325 21.545 -0.180762 18.4491 1.10076C17.8376 1.35409 17.4629 1.9992 17.6193 2.62488C17.8244 3.44396 18.7239 3.85185 19.4854 3.53116C21.5621 2.65711 23.9388 3.09186 25.5404 4.64118C27.6736 6.70378 27.6736 10.0607 25.5408 12.1241L19.7247 17.7561L14.1529 12.3671L17.0847 9.51231L19.7516 12.0931C20.0169 12.3502 20.3652 12.4787 20.713 12.4787C21.0322 12.4787 21.351 12.3704 21.6066 12.1543C22.2069 11.6468 22.1783 10.7236 21.6142 10.1781L15.8886 4.63581L15.7549 4.50605L14.5772 3.36668C14.5768 3.36586 14.5768 3.36586 14.5764 3.36586L13.9738 2.78274C10.7814 -0.303502 5.58608 -0.303915 2.39403 2.78274C-0.798011 5.87064 -0.798011 10.8947 2.39403 13.9822L13.9901 25.1617C14.5208 25.6738 15.3801 25.6734 15.91 25.1605C16.4412 24.6468 16.4407 23.8141 15.9087 23.3008L4.31567 12.1241C2.18294 10.0607 2.18294 6.70378 4.31567 4.6416C6.44797 2.57859 9.91905 2.57942 12.0522 4.64118L12.6547 5.2243L15.1643 7.65304L12.2313 10.5083L8.83837 7.22614C8.31833 6.7232 7.46242 6.64923 6.91546 7.12572C6.33302 7.63362 6.31508 8.50271 6.86247 9.0321L18.6111 20.3964C19.2256 20.9911 20.2225 20.9911 20.837 20.396L27.4625 13.9822C30.6545 10.8947 30.6545 5.87064 27.4621 2.78274Z" fill="#199BB5"/>
</svg>
