<svg width="24" height="24" viewBox="0 0 24 24" fill="none" xmlns="http://www.w3.org/2000/svg">
<path fill-rule="evenodd" clip-rule="evenodd" d="M15 0C17.6509 0 19.8 2.11519 19.8 4.72441C19.8 5.71746 19.6198 7.09516 19.2006 8.42089C20.6511 8.94978 21.7778 9.80381 22.5887 10.9358C23.6039 12.3531 24 13.9992 24 15.598C24 16.0348 23.7626 16.437 23.3803 16.6482C22.9127 16.9066 22.1029 17.2737 21.0168 17.6361C20.2189 17.9023 19.394 18.1214 18.548 18.2829C18.9763 19.2218 19.2 20.1772 19.2 20.9974C19.2 21.4607 18.9332 21.8826 18.5146 22.0813C17.9868 22.3318 17.074 22.6923 15.866 23.0494C13.8569 23.6432 11.7393 24 9.59998 24C7.46069 24 5.34306 23.6432 3.33398 23.0494C2.12597 22.6923 1.21312 22.3318 0.685356 22.0813C0.266772 21.8826 0 21.4607 0 20.9974C0 19.5421 0.690095 17.6823 1.97232 16.2291C2.77563 15.3187 3.7717 14.5909 4.9559 14.0769C4.42592 12.4857 4.19995 10.7972 4.19995 9.5988C4.19995 6.61683 6.61762 4.19947 9.59995 4.19947C9.81149 4.19947 10.0202 4.21164 10.2254 4.2353C10.474 1.8559 12.5168 0 15 0ZM14.2429 14.0803C15.3593 14.5666 16.3087 15.2435 17.0875 16.0844C18.1794 15.9492 19.2427 15.6983 20.2571 15.3598C20.7356 15.2001 21.1719 15.031 21.5598 14.8616C21.4605 13.9632 21.1716 13.0787 20.6375 12.3331C20.0845 11.561 19.2927 10.9722 18.2051 10.6106C17.4556 11.7715 16.4094 12.5984 15 12.5984C14.8817 12.5984 14.7659 12.5926 14.6527 12.5812C14.5441 13.0786 14.4083 13.5842 14.2429 14.0803ZM17.4 4.72441C17.4 7.44399 16.1328 10.1987 15 10.1987L14.9829 10.1985C14.9944 9.988 15 9.78733 15 9.5988C15 7.73047 14.0509 6.08377 12.6085 5.11442C12.6029 4.98454 12.6 4.85443 12.6 4.72441C12.6 3.44904 13.6661 2.3997 15 2.3997C16.3338 2.3997 17.4 3.44904 17.4 4.72441ZM3.77204 17.8167C3.11334 18.5632 2.67919 19.4643 2.49722 20.2373C2.95284 20.4113 3.4613 20.5847 4.01438 20.7481C5.81711 21.281 7.71238 21.6003 9.59998 21.6003C11.4876 21.6003 13.3828 21.281 15.1856 20.7481C15.7379 20.5849 16.2457 20.4117 16.7009 20.238C16.5175 19.4712 16.0833 18.5718 15.4269 17.8261C14.8496 17.1701 14.1271 16.6402 13.2459 16.262C12.4001 17.6221 11.2109 18.5977 9.59995 18.5977C7.98779 18.5977 6.79807 17.6207 5.95211 16.259C5.07064 16.6356 4.34852 17.1633 3.77204 17.8167ZM12.6 9.5988C12.6 12.8702 11.0931 16.198 9.59995 16.198C8.10676 16.198 6.59995 12.8702 6.59995 9.5988C6.59995 7.94215 7.9431 6.59917 9.59995 6.59917C11.2568 6.59917 12.6 7.94215 12.6 9.5988Z" fill="#50555B"/>
</svg>
