<svg width="24" height="24" viewBox="0 0 24 24" fill="none" xmlns="http://www.w3.org/2000/svg">
<path fill-rule="evenodd" clip-rule="evenodd" d="M23.1332 5.79471C24.0731 4.85487 24.0731 3.33684 23.1368 2.40056L21.4362 0.699965C20.5031 -0.233121 18.9803 -0.234714 18.0421 0.703542L6.16447 12.5811L5.04356 17.0482C4.72176 18.3307 5.50198 19.116 6.78853 18.7932L11.2556 17.6723L23.1332 5.79471ZM19.2 13.0359V21.4314L2.40105 21.435L2.4 4.63608L10.8179 4.63504C11.4806 4.63504 12.0179 4.09778 12.0179 3.43504C12.0179 2.7723 11.4806 2.23504 10.8179 2.23504H2.4059C1.0759 2.23504 0 3.30838 0 4.63608V21.434C0 22.7634 1.07419 23.835 2.40105 23.835H19.199C20.529 23.835 21.6 22.7591 21.6 21.4314V13.0359C21.6 12.3732 21.0627 11.8359 20.4 11.8359C19.7373 11.8359 19.2 12.3732 19.2 13.0359ZM10.0179 15.5159L10.8314 14.7024L9.13497 13.006L8.3318 13.8091L7.7686 16.0682L10.0179 15.5159ZM17.1936 4.94261L18.8906 6.64324L12.5284 13.0054L10.8321 11.3091L17.1936 4.94261Z" fill="#50555B"/>
</svg>
