<svg width="24" height="24" viewBox="0 0 24 24" fill="none" xmlns="http://www.w3.org/2000/svg">
<path fill-rule="evenodd" clip-rule="evenodd" d="M14.6778 23.6998C20.0947 22.4647 24 17.6283 24 12C24 5.37258 18.6274 0 12 0C11.3373 0 10.8 0.537258 10.8 1.2C10.8 1.86274 11.3373 2.4 12 2.4C17.3019 2.4 21.6 6.69807 21.6 12C21.6 16.5024 18.475 20.3724 14.1443 21.3599C13.4981 21.5072 13.0937 22.1505 13.2411 22.7966C13.3884 23.4428 14.0317 23.8472 14.6778 23.6998ZM1.2599 6.64209C0.963638 7.23492 1.20406 7.95568 1.79689 8.25195C2.38973 8.54821 3.11049 8.30779 3.40675 7.71496C3.49637 7.53562 3.59162 7.35914 3.69232 7.18579C4.02521 6.61272 3.83051 5.87829 3.25744 5.5454C2.68437 5.21251 1.94994 5.40721 1.61705 5.98028C1.49113 6.19705 1.37201 6.41776 1.2599 6.64209ZM0.806922 16.3341C1.04636 16.9521 1.74143 17.259 2.35941 17.0195C2.97739 16.7801 3.28425 16.085 3.04481 15.4671C2.62043 14.3718 2.4 13.2021 2.4 12C2.4 11.3373 1.86274 10.8 1.2 10.8C0.537258 10.8 0 11.3373 0 12C0 13.4998 0.275821 14.9634 0.806922 16.3341ZM10.7686 22.7977C10.6218 23.444 9.97896 23.849 9.33267 23.7022C7.09162 23.1933 5.05475 22.0491 3.45086 20.4209C2.98577 19.9488 2.99147 19.189 3.46361 18.7239C3.93575 18.2588 4.69552 18.2645 5.16062 18.7367C6.44468 20.0402 8.07355 20.9552 9.86411 21.3618C10.5104 21.5086 10.9154 22.1515 10.7686 22.7977ZM13.2 10.8H16.8055C17.4652 10.8 18 11.3326 18 12C18 12.6627 17.4611 13.2 16.8055 13.2H13.2V16.8055C13.2 17.4652 12.6674 18 12 18C11.3373 18 10.8 17.4611 10.8 16.8055V13.2H7.19448C6.53479 13.2 6 12.6674 6 12C6 11.3373 6.53893 10.8 7.19448 10.8H10.8V7.19448C10.8 6.53479 11.3326 6 12 6C12.6627 6 13.2 6.53893 13.2 7.19448V10.8Z" fill="#50555B"/>
</svg>
