<svg width="23" height="24" viewBox="0 0 23 24" fill="none" xmlns="http://www.w3.org/2000/svg">
<path fill-rule="evenodd" clip-rule="evenodd" d="M22.1538 19.9383V5.53858C22.1538 3.70429 20.669 2.21538 18.8308 2.21538V1.10748C18.8308 0.491502 18.3348 0 17.7231 0C17.1071 0 16.6154 0.495835 16.6154 1.10748V2.21538H14.4V1.10748C14.4 0.491502 13.9041 0 13.2923 0C12.6763 0 12.1846 0.495835 12.1846 1.10748V2.21538H9.96923V1.10748C9.96923 0.491502 9.4733 0 8.86154 0C8.24551 0 7.75385 0.495835 7.75385 1.10748V2.21538H5.53846V1.10748C5.53846 0.491502 5.04253 0 4.43077 0C3.81474 0 3.32308 0.495835 3.32308 1.10748L3.31764 2.21538C1.48424 2.21538 0 3.70367 0 5.53858V19.9383C0 21.7726 1.48489 23.2615 3.31764 23.2615H18.8362C20.6696 23.2615 22.1538 21.7733 22.1538 19.9383ZM19.9385 5.53858C19.9385 4.92648 19.4441 4.43077 18.8362 4.43077C18.8308 5.04263 18.3391 5.53846 17.7231 5.53846C17.1113 5.53846 16.6154 5.04696 16.6154 4.43098L14.4 4.43077C14.4 5.04263 13.9083 5.53846 13.2923 5.53846C12.6805 5.53846 12.1846 5.04696 12.1846 4.43098L9.96923 4.43077C9.96923 5.04263 9.47757 5.53846 8.86154 5.53846C8.24978 5.53846 7.75385 5.04696 7.75385 4.43098L5.53846 4.43077C5.53846 5.04263 5.0468 5.53846 4.43077 5.53846C3.81901 5.53846 3.32308 5.04696 3.32308 4.43098C2.70911 4.43077 2.21538 4.92585 2.21538 5.53858V7.75385H19.9385V5.53858ZM2.21538 9.96923V19.9383C2.21538 20.5504 2.70976 21.0462 3.31764 21.0462H18.8362C19.4447 21.0462 19.9385 20.5511 19.9385 19.9383V9.96923H2.21538ZM4.43077 13.2923C4.43077 12.6805 4.92758 12.1846 5.5412 12.1846H16.6126C17.2259 12.1846 17.7231 12.6763 17.7231 13.2923C17.7231 13.9041 17.2263 14.4 16.6126 14.4H5.5412C4.92793 14.4 4.43077 13.9083 4.43077 13.2923ZM5.5412 16.6154C4.92758 16.6154 4.43077 17.1113 4.43077 17.7231C4.43077 18.3391 4.92793 18.8308 5.5412 18.8308H16.6126C17.2263 18.8308 17.7231 18.3348 17.7231 17.7231C17.7231 17.107 17.2259 16.6154 16.6126 16.6154H5.5412Z" fill="#50555B"/>
</svg>
