<svg width="24" height="24" viewBox="0 0 24 24" fill="none" xmlns="http://www.w3.org/2000/svg">
<path fill-rule="evenodd" clip-rule="evenodd" d="M0 3.59411V20.4059C0 22.3914 1.60894 24 3.59411 24H20.4059C22.3914 24 24 22.3911 24 20.4059V3.59411C24 1.6086 22.3911 0 20.4059 0H3.59411C1.6086 0 0 1.60894 0 3.59411ZM2.4 3.59411C2.4 2.93431 2.9342 2.4 3.59411 2.4H20.4059C21.0657 2.4 21.6 2.9342 21.6 3.59411V20.4059C21.6 21.0657 21.0658 21.6 20.4059 21.6H3.59411C2.93431 21.6 2.4 21.0658 2.4 20.4059V3.59411ZM4.8 5.99469C4.8 5.33488 5.33246 4.8 5.99977 4.8H9.60023C10.2628 4.8 10.8 5.3338 10.8 5.99469V16.8053C10.8 17.4651 10.2675 18 9.60023 18H5.99977C5.33715 18 4.8 17.4662 4.8 16.8053V5.99469ZM14.3998 4.8C13.7325 4.8 13.2 5.33955 13.2 6.00512V10.7949C13.2 11.4588 13.7372 12 14.3998 12H18.0002C18.6675 12 19.2 11.4605 19.2 10.7949V6.00512C19.2 5.34117 18.6628 4.8 18.0002 4.8H14.3998Z" fill="#50555B"/>
</svg>
