<svg width="24" height="22" viewBox="0 0 24 22" fill="none" xmlns="http://www.w3.org/2000/svg">
<path fill-rule="evenodd" clip-rule="evenodd" d="M17.6276 0.501452L13.0427 7.63916H2.18034C0.974563 7.63916 0 8.61435 0 9.82311V10.9161C0 14.9497 2.60962 18.6313 5.45455 19.7263C5.498 20.8918 6.45834 21.821 7.63134 21.821H16.3687C17.5722 21.821 18.5352 20.8297 18.5352 19.7155C21.8379 18.0822 24 14.6999 24 10.9161V9.82311C24 8.61747 23.0258 7.63916 21.8197 7.63916H18.4269L23.5831 3.58787C24.0568 3.21564 24.1391 2.52983 23.7669 2.05608C23.3947 1.58233 22.7089 1.50003 22.2351 1.87227L16.3903 6.46461L19.4633 1.68063C19.7889 1.17371 19.642 0.498805 19.135 0.173183C18.6281 -0.152439 17.9532 -0.00546791 17.6276 0.501452ZM2.18182 10.9161V9.82311C2.18182 9.82084 21.8197 9.82098 21.8197 9.82098C21.8188 9.82098 21.8182 10.9161 21.8182 10.9161C21.8182 14.054 19.9062 16.8369 17.0454 17.9943L16.8734 18.0639C16.5919 18.1777 16.3636 18.5146 16.3636 18.8107V19.6379C16.3636 19.6397 7.63134 19.6392 7.63134 19.6392C7.63743 19.6392 7.6363 18.8111 7.6363 18.8111C7.63634 18.5123 7.40557 18.1766 7.12668 18.0637L6.95465 17.9941C4.09401 16.8366 2.18182 14.053 2.18182 10.9161ZM5.44757 2.04633C5.42678 2.02794 5.41154 2.01524 5.40341 2.00847L5.40341 2.00847C5.39716 2.00327 5.39512 2.00157 5.39798 2.00346C4.89553 1.67097 4.75776 0.994126 5.09025 0.491683C5.42273 -0.0107602 6.09958 -0.148536 6.60202 0.183952C6.83482 0.338005 7.13024 0.59939 7.4176 0.981826C7.89317 1.61475 8.18182 2.38518 8.18182 3.27552C8.18182 4.16587 7.89317 4.93629 7.4176 5.56922C7.13024 5.95166 6.83482 6.21304 6.60202 6.3671C6.09958 6.69958 5.42273 6.56181 5.09025 6.05937C4.75776 5.55692 4.89553 4.88008 5.39798 4.54759C5.39511 4.54948 5.39716 4.54778 5.40341 4.54257C5.41154 4.5358 5.42678 4.52311 5.44757 4.50472C5.52263 4.4383 5.60039 4.35562 5.67331 4.25858C5.87955 3.9841 6 3.66261 6 3.27552C6 2.88844 5.87955 2.56695 5.67331 2.29247C5.60039 2.19542 5.52263 2.11275 5.44757 2.04633ZM9.76704 2.00847C9.77517 2.01524 9.79041 2.02794 9.8112 2.04633C9.88627 2.11275 9.96403 2.19542 10.0369 2.29247C10.2432 2.56695 10.3636 2.88844 10.3636 3.27552C10.3636 3.66261 10.2432 3.9841 10.0369 4.25858C9.96403 4.35562 9.88627 4.4383 9.8112 4.50472C9.79041 4.52311 9.77517 4.5358 9.76704 4.54257C9.7608 4.54778 9.75875 4.54948 9.76161 4.54759C9.25917 4.88008 9.1214 5.55692 9.45388 6.05937C9.78637 6.56181 10.4632 6.69958 10.9657 6.3671C11.1985 6.21304 11.4939 5.95166 11.7812 5.56922C12.2568 4.93629 12.5455 4.16587 12.5455 3.27552C12.5455 2.38518 12.2568 1.61475 11.7812 0.981826C11.4939 0.59939 11.1985 0.338005 10.9657 0.183952C10.4632 -0.148536 9.78637 -0.0107602 9.45388 0.491683C9.1214 0.994126 9.25917 1.67097 9.76161 2.00346C9.75875 2.00157 9.7608 2.00327 9.76704 2.00847Z" fill="#199BB5"/>
</svg>
