<svg width="24" height="24" viewBox="0 0 24 24" fill="none" xmlns="http://www.w3.org/2000/svg">
<path fill-rule="evenodd" clip-rule="evenodd" d="M5.20747 1.33333C5.20747 0.596954 5.80628 0 6.53466 0H17.2136C17.9466 0 18.5408 0.59182 18.5408 1.33333C18.5408 2.06971 17.942 2.66667 17.2136 2.66667H6.53466C5.80167 2.66667 5.20747 2.07485 5.20747 1.33333ZM0.0134703 10.7932L1.08136 21.4721C1.22302 22.8887 2.44804 24 3.8683 24H19.88C21.295 24 22.5257 22.8843 22.6669 21.4721L23.7348 10.7932C23.8869 9.27172 22.7327 8 21.2063 8H2.54196C1.01243 8 -0.138415 9.27435 0.0134703 10.7932ZM2.68134 10.6723L21.0664 10.6772L19.8741 21.3333H3.87413L2.68134 10.6723ZM3.8683 4C3.14073 4 2.5408 4.59695 2.5408 5.33333C2.5408 6.07485 3.13514 6.66667 3.8683 6.66667H19.88C20.6075 6.66667 21.2075 6.06971 21.2075 5.33333C21.2075 4.59182 20.6131 4 19.88 4H3.8683Z" fill="#50555B"/>
</svg>
