<svg width="24" height="20" viewBox="0 0 24 20" fill="none" xmlns="http://www.w3.org/2000/svg">
<path fill-rule="evenodd" clip-rule="evenodd" d="M21.8172 0H2.18281C0.97805 0 0 0.974435 0 2.17646V17.4599C0 18.6626 0.977275 19.6364 2.18281 19.6364H21.8172C23.0219 19.6364 24 18.6619 24 17.4599V2.17646C24 0.97377 23.0227 0 21.8172 0ZM12 10.4933L20.2838 2.17831L3.71955 2.1817L12 10.4933ZM21.8182 3.72455L15.7246 9.81818L21.8179 15.9115L21.8182 3.72455ZM14.1818 11.361L12.7714 12.7714C12.3454 13.1974 11.6546 13.1974 11.2286 12.7714L9.81818 11.361L3.72109 17.458L20.2755 17.4547L14.1818 11.361ZM2.18211 3.72488L8.2754 9.81818L2.18177 15.9118L2.18211 3.72488Z" fill="#50555B"/>
</svg>
