<svg width="21" height="24" viewBox="0 0 21 24" fill="none" xmlns="http://www.w3.org/2000/svg">
<path d="M8.9826 16.353C8.55248 16.7767 7.85081 16.7767 7.41946 16.3518C6.98834 15.9271 6.98779 15.2359 7.41822 14.8119L12.8948 9.4169C13.3268 8.99134 13.3268 8.30137 12.8948 7.87582C12.4628 7.45026 11.7624 7.45026 11.3304 7.87582L5.85385 13.2708C4.55889 14.5465 4.56053 16.6176 5.85508 17.8929C7.15042 19.1689 9.25289 19.1689 10.547 17.8941L14.4592 14.0402L19.5427 9.03229C21.4861 7.11787 21.4852 4.00969 19.5434 2.09675C17.5995 0.181857 14.4469 0.182459 12.503 2.09741L7.41946 7.10527L1.94413 12.4991C-0.647958 15.0526 -0.648132 19.1919 1.94414 21.7456C4.53634 24.2992 8.7379 24.2995 11.3304 21.7456L18.3701 14.8107C18.8021 14.3851 18.8021 13.6952 18.3701 13.2696C17.9381 12.8441 17.2377 12.8441 16.8057 13.2696L9.76602 20.2045C8.03756 21.9072 5.23678 21.907 3.50852 20.2045C1.78026 18.502 1.78037 15.7426 3.50851 14.0402L8.98384 8.64636L14.0674 3.6385C15.1474 2.57453 16.8993 2.57419 17.979 3.63783C19.0571 4.69984 19.0575 6.42808 17.9783 7.49121L12.8948 12.4991L8.9826 16.353Z" fill="#50555B"/>
</svg>
