<svg width="24" height="24" viewBox="0 0 24 24" fill="none" xmlns="http://www.w3.org/2000/svg">
<path fill-rule="evenodd" clip-rule="evenodd" d="M20.4257 1.75781C18.0845 -0.583411 14.2821 -0.587564 11.9394 1.75512L1.75539 11.9391C-0.585066 14.2796 -0.586091 18.0813 1.75808 20.4254L3.45143 22.1188C5.79265 24.46 9.59504 24.4641 11.9377 22.1215L22.1217 11.9375C24.4622 9.597 24.4632 5.79533 22.119 3.45116L20.4257 1.75781ZM3.45514 18.7284C2.04889 17.3221 2.04858 15.04 3.45245 13.6362L3.45328 13.6353L10.2407 20.4244C8.83669 21.8284 6.55389 21.8271 5.14848 20.4217L3.45514 18.7284ZM18.7268 11.9383L11.9386 5.15007L5.15034 11.9383L11.9386 18.7526L18.7268 11.9383ZM20.422 5.14821C21.8282 6.55446 21.8285 8.83654 20.4247 10.2404L13.6365 3.45218C15.0404 2.04819 17.3232 2.04946 18.7286 3.45487L20.422 5.14821ZM7.55147 12.8485C7.08284 12.3799 7.08284 11.6201 7.55147 11.1515C8.0201 10.6828 8.7799 10.6828 9.24853 11.1515C9.71716 11.6201 9.71716 12.3799 9.24853 12.8485C8.7799 13.3172 8.0201 13.3172 7.55147 12.8485ZM11.1515 14.7515C10.6828 15.2201 10.6828 15.9799 11.1515 16.4485C11.6201 16.9172 12.3799 16.9172 12.8485 16.4485C13.3172 15.9799 13.3172 15.2201 12.8485 14.7515C12.3799 14.2828 11.6201 14.2828 11.1515 14.7515ZM14.7515 12.8485C14.2828 12.3799 14.2828 11.6201 14.7515 11.1515C15.2201 10.6828 15.9799 10.6828 16.4485 11.1515C16.9172 11.6201 16.9172 12.3799 16.4485 12.8485C15.9799 13.3172 15.2201 13.3172 14.7515 12.8485ZM11.1515 7.55147C10.6828 8.0201 10.6828 8.7799 11.1515 9.24853C11.6201 9.71716 12.3799 9.71716 12.8485 9.24853C13.3172 8.7799 13.3172 8.0201 12.8485 7.55147C12.3799 7.08284 11.6201 7.08284 11.1515 7.55147Z" fill="#50555B"/>
</svg>
