<svg width="18" height="18" viewBox="0 0 18 18" fill="none" xmlns="http://www.w3.org/2000/svg">
<path fill-rule="evenodd" clip-rule="evenodd" d="M4.05 4.66078C4.05 2.0867 6.26619 0 9 0C11.7338 0 13.95 2.0867 13.95 4.66078C13.95 5.7531 13.7592 7.42905 13.2423 8.9966L13.2692 9.00689C15.0741 9.69636 18 10.814 18 13.4914V15.2979C18 16.2924 14.1164 18 9 18C3.88356 18 0 16.289 0 15.2979V13.4914C0 10.8136 2.90821 9.70456 4.71369 9.01601L4.75851 8.99891C4.24098 7.4307 4.05 5.75364 4.05 4.66078ZM1.80002 13.4914V14.7121C2.11501 14.9043 4.63159 16.1973 9.00002 16.1973C13.3685 16.1973 15.8854 14.9057 16.2 14.7136V13.4914C16.2 12.0029 13.0176 10.8333 12.5682 10.6681L12.5294 10.6538C11.763 12.0293 10.63 13.05 9.00002 13.05C7.37092 13.05 6.23821 12.0303 5.47182 10.656L5.43213 10.6706C4.98045 10.8361 1.80002 12.0012 1.80002 13.4914ZM12.15 4.66078C12.15 7.99436 10.7726 11.25 8.99999 11.25C7.22737 11.25 5.84999 7.99436 5.84999 4.66078C5.84999 3.10584 7.23687 1.79999 8.99999 1.79999C10.7631 1.79999 12.15 3.10584 12.15 4.66078Z" fill="#50555B"/>
</svg>
