<svg width="32" height="32" viewBox="0 0 32 32" fill="none" xmlns="http://www.w3.org/2000/svg">
<path fill-rule="evenodd" clip-rule="evenodd" d="M26.3353 9.45864H21.6163V8.14091C21.6163 5.30455 19.1903 3 16 3C12.8097 3 10.377 5.30455 10.377 8.14091V9.45864H5.66465C5.29758 9.45864 5 9.7232 5 10.0495V28.4091C5 28.7354 5.29758 29 5.66465 29H26.3353C26.7024 29 27 28.7354 27 28.4091V10.0495C27 9.7232 26.7024 9.45864 26.3353 9.45864ZM11.713 8.14091C11.7063 5.95455 13.5408 4.18182 16 4.18182C18.4592 4.18182 20.287 5.95455 20.287 8.14091V9.45864H11.7063L11.713 8.14091ZM6.32931 10.6405V27.8182H25.6707V10.6405H21.6163V13.5566C21.6163 13.8829 21.3187 14.1475 20.9517 14.1475C20.5846 14.1475 20.287 13.8829 20.287 13.5566V10.6405H11.7063V13.5566C11.7063 13.8829 11.4088 14.1475 11.0417 14.1475C10.6746 14.1475 10.377 13.8829 10.377 13.5566V10.6405H6.32931Z" fill="white"/>
<path d="M21.6163 9.45864H21.3163V9.75864H21.6163V9.45864ZM10.377 9.45864V9.75864H10.677V9.45864H10.377ZM11.713 8.14091L12.013 8.14242L12.013 8.14L11.713 8.14091ZM20.287 9.45864V9.75864H20.587V9.45864H20.287ZM11.7063 9.45864L11.4063 9.45712L11.4048 9.75864H11.7063V9.45864ZM6.32931 27.8182H6.02931V28.1182H6.32931V27.8182ZM6.32931 10.6405V10.3405H6.02931V10.6405H6.32931ZM25.6707 27.8182V28.1182H25.9707V27.8182H25.6707ZM25.6707 10.6405H25.9707V10.3405H25.6707V10.6405ZM21.6163 10.6405V10.3405H21.3163V10.6405H21.6163ZM20.287 10.6405H20.587V10.3405H20.287V10.6405ZM11.7063 10.6405V10.3405H11.4063V10.6405H11.7063ZM10.377 10.6405H10.677V10.3405H10.377V10.6405ZM21.6163 9.75864H26.3353V9.15864H21.6163V9.75864ZM21.3163 8.14091V9.45864H21.9163V8.14091H21.3163ZM16 3.3C19.0469 3.3 21.3163 5.49159 21.3163 8.14091H21.9163C21.9163 5.1175 19.3338 2.7 16 2.7V3.3ZM10.677 8.14091C10.677 5.49204 12.9527 3.3 16 3.3V2.7C12.6667 2.7 10.077 5.11705 10.077 8.14091H10.677ZM10.677 9.45864V8.14091H10.077V9.45864H10.677ZM5.66465 9.75864H10.377V9.15864H5.66465V9.75864ZM5.3 10.0495C5.3 9.92107 5.42912 9.75864 5.66465 9.75864V9.15864C5.16603 9.15864 4.7 9.52532 4.7 10.0495H5.3ZM5.3 28.4091V10.0495H4.7V28.4091H5.3ZM5.66465 28.7C5.42912 28.7 5.3 28.5376 5.3 28.4091H4.7C4.7 28.9333 5.16603 29.3 5.66465 29.3V28.7ZM26.3353 28.7H5.66465V29.3H26.3353V28.7ZM26.7 28.4091C26.7 28.5376 26.5709 28.7 26.3353 28.7V29.3C26.834 29.3 27.3 28.9333 27.3 28.4091H26.7ZM26.7 10.0495V28.4091H27.3V10.0495H26.7ZM26.3353 9.75864C26.5709 9.75864 26.7 9.92107 26.7 10.0495H27.3C27.3 9.52532 26.834 9.15864 26.3353 9.15864V9.75864ZM16 3.88182C13.3946 3.88182 11.4058 5.77028 11.413 8.14182L12.013 8.14C12.0069 6.13881 13.687 4.48182 16 4.48182V3.88182ZM20.587 8.14091C20.587 5.77088 18.6063 3.88182 16 3.88182V4.48182C18.3121 4.48182 19.987 6.13821 19.987 8.14091H20.587ZM20.587 9.45864V8.14091H19.987V9.45864H20.587ZM11.7063 9.75864H20.287V9.15864H11.7063V9.75864ZM11.413 8.1394L11.4063 9.45712L12.0063 9.46015L12.013 8.14242L11.413 8.1394ZM6.62931 27.8182V10.6405H6.02931V27.8182H6.62931ZM25.6707 27.5182H6.32931V28.1182H25.6707V27.5182ZM25.3707 10.6405V27.8182H25.9707V10.6405H25.3707ZM21.6163 10.9405H25.6707V10.3405H21.6163V10.9405ZM21.9163 13.5566V10.6405H21.3163V13.5566H21.9163ZM20.9517 14.4475C21.4503 14.4475 21.9163 14.0808 21.9163 13.5566H21.3163C21.3163 13.6851 21.1872 13.8475 20.9517 13.8475V14.4475ZM19.987 13.5566C19.987 14.0808 20.453 14.4475 20.9517 14.4475V13.8475C20.7161 13.8475 20.587 13.6851 20.587 13.5566H19.987ZM19.987 10.6405V13.5566H20.587V10.6405H19.987ZM11.7063 10.9405H20.287V10.3405H11.7063V10.9405ZM12.0063 13.5566V10.6405H11.4063V13.5566H12.0063ZM11.0417 14.4475C11.5403 14.4475 12.0063 14.0808 12.0063 13.5566H11.4063C11.4063 13.6851 11.2772 13.8475 11.0417 13.8475V14.4475ZM10.077 13.5566C10.077 14.0808 10.5431 14.4475 11.0417 14.4475V13.8475C10.8062 13.8475 10.677 13.6851 10.677 13.5566H10.077ZM10.077 10.6405V13.5566H10.677V10.6405H10.077ZM6.32931 10.9405H10.377V10.3405H6.32931V10.9405Z" fill="white"/>
</svg>
